<svg xmlns="http://www.w3.org/2000/svg" viewBox="0 0 256 256" role="img" aria-label="Amazon Q">
  <defs>
    <linearGradient id="aq" x1="0" y1="0" x2="1" y2="1">
      <stop offset="0%" stop-color="#f59e0b"/>
      <stop offset="100%" stop-color="#ea580c"/>
    </linearGradient>
  </defs>
  <rect x="16" y="16" width="224" height="224" rx="56" fill="url(#aq)"/>
  <path d="M72 126c0-30 24-54 54-54s54 24 54 54c0 29-22 52-50 54l16 22h-23l-14-20h-1c-30 0-54-24-54-56Zm54 33c18 0 33-15 33-33s-15-33-33-33-33 15-33 33 15 33 33 33Z" fill="#fff"/>
  <path d="M46 195c45 32 115 26 165-10" fill="none" stroke="#111827" stroke-width="9" stroke-linecap="round"/>
  <path d="M197 183l20 2-11 16" fill="#111827"/>
</svg>
