<?xml version="1.0" encoding="utf-8"?>
<svg xmlns="http://www.w3.org/2000/svg" width="572" height="574" viewBox="0 0 572 574" fill="none">
<path d="M432.492 96.0732C435.478 96.5231 436.863 100.033 434.988 102.401L412.478 130.838C385.584 164.815 370.954 206.878 370.954 250.209L370.954 264.551C370.954 267.582 369.199 270.338 366.453 271.62L357.38 275.854C321.472 292.609 292.609 321.472 275.849 357.385L271.615 366.457C270.334 369.204 267.577 370.959 264.546 370.959L250.205 370.959C206.873 370.959 164.81 385.589 130.834 412.483L102.4 434.989C100.032 436.863 96.523 435.478 96.0731 432.492L77.9731 312.331C67.0075 239.533 41.2464 169.754 2.27816 107.294V107.294C-1.19877 101.721 -0.371898 94.4862 4.27282 89.8414L89.8413 4.27296C94.486 -0.371755 101.721 -1.19864 107.294 2.27829V2.27829C169.753 41.2465 239.533 67.0076 312.331 77.9732L432.492 96.0732Z" fill="#107A4D"/>
<path d="M250.213 413.34C251.998 413.34 253.461 414.754 253.521 416.538L254.252 438.219C255.693 480.692 257.128 523.166 258.561 565.639C258.82 573.292 249.047 576.697 244.493 570.541C224.94 544.104 205.385 517.663 185.825 491.228L156.383 451.421C155.055 449.626 155.391 447.101 157.142 445.716V445.716C168.77 436.513 181.689 429.136 195.387 423.764C199.071 422.312 202.82 421.007 206.615 419.859C220.686 415.571 235.395 413.34 250.213 413.34V413.34Z" fill="#107A4D"/>
<path d="M419.864 255.714L419.864 255.677L418.588 255.634C415.664 255.534 413.344 253.135 413.344 250.209V250.209C413.344 235.39 415.576 220.682 419.864 206.61C421.012 202.815 422.312 199.071 423.764 195.387L423.774 195.378C428.243 183.981 434.604 172.485 441.913 162.25C444.359 158.824 449.135 158.202 452.52 160.705L498.702 194.866C521.974 212.085 545.246 229.298 568.52 246.512C574.676 251.066 571.271 260.839 563.618 260.58C515.696 258.961 467.778 257.339 419.864 255.714Z" fill="#107A4D"/>
<path d="M395.892 304.66C399.666 302.898 404.159 304.413 406.096 308.1C438.39 369.544 470.683 430.989 502.974 492.437C506.536 499.216 499.217 506.534 492.438 502.971C468.497 490.388 444.553 477.805 420.612 465.225L308.1 406.097C304.413 404.159 302.898 399.666 304.66 395.892L314.266 375.312C320.513 361.927 328.969 349.847 339.408 339.408C349.847 328.97 361.931 320.509 375.312 314.266L395.892 304.66Z" fill="#107A4D"/>
</svg>