<svg xmlns="http://www.w3.org/2000/svg" viewBox="0 0 256 256" role="img" aria-label="OpenAI">
  <rect x="16" y="16" width="224" height="224" rx="56" fill="#111827"/>
  <path d="M128 68c14 0 25 11 25 25v8l7-4c12-7 28-2 35 10 7 12 2 28-10 35l-7 4 7 4c12 7 17 23 10 35-7 12-23 17-35 10l-7-4v8c0 14-11 25-25 25s-25-11-25-25v-8l-7 4c-12 7-28 2-35-10-7-12-2-28 10-35l7-4-7-4c-12-7-17-23-10-35 7-12 23-17 35-10l7 4v-8c0-14 11-25 25-25Zm0 24c-1 0-1 0-1 1v30l-26 15-1 1 1 1 26 15v30c0 1 0 1 1 1s1 0 1-1v-30l26-15 1-1-1-1-26-15V93c0-1 0-1-1-1Z" fill="#f8fafc"/>
</svg>
